PathFileType  4	(X/Y/Z) C:\Users\antoi\Documents\MyRepositories\mobilecap\ResultsAnalysis
DataRate	CameraRate	NumFrames	NumMarkers	Units	OrigDataRate	OrigDataStartFrame	OrigNumFrames
100.0	100.0	4	51	mm	100.0	111	147
Frame#	Time	r_knee			r_shank_antsup			r_ankle			r_calc			r_5meta			r_toe			L_knee			L_shank_antsup			L_ankle			L_calc			L_5meta			L_toe			r_sh2			r_sh3			r_sh4			L_sh2			L_sh3			r_thigh1			r_thigh2			r_thigh3			r_thigh4			r_thigh5			L_thigh1			L_thigh2			L_thigh3			L_thigh4			r.ASIS			r.PSIS			L.ASIS			L.PSIS			C7			R_Shoulder			L_Shoulder			R_Sternum			L_Sternum			R_humerus			R_elbow_med			R_elbow_lat			R_forearm			R_wrist_radius			R_wrist_ulna			L_humerus			L_elbow_med			L_elbow_lat			L_forearm			L_wrist_radius			L_wrist_ulna			R_HJC			L_HJC			R_HJC_reg			L_HJC_reg			
		X1	Y1	Z1	X2	Y2	Z2	X3	Y3	Z3	X4	Y4	Z4	X5	Y5	Z5	X6	Y6	Z6	X7	Y7	Z7	X8	Y8	Z8	X9	Y9	Z9	X10	Y10	Z10	X11	Y11	Z11	X12	Y12	Z12	X13	Y13	Z13	X14	Y14	Z14	X15	Y15	Z15	X16	Y16	Z16	X17	Y17	Z17	X18	Y18	Z18	X19	Y19	Z19	X20	Y20	Z20	X21	Y21	Z21	X22	Y22	Z22	X23	Y23	Z23	X24	Y24	Z24	X25	Y25	Z25	X26	Y26	Z26	X27	Y27	Z27	X28	Y28	Z28	X29	Y29	Z29	X30	Y30	Z30	X31	Y31	Z31	X32	Y32	Z32	X33	Y33	Z33	X34	Y34	Z34	X35	Y35	Z35	X36	Y36	Z36	X37	Y37	Z37	X38	Y38	Z38	X39	Y39	Z39	X40	Y40	Z40	X41	Y41	Z41	X42	Y42	Z42	X43	Y43	Z43	X44	Y44	Z44	X45	Y45	Z45	X46	Y46	Z46	X47	Y47	Z47	X48	Y48	Z48	X49	Y49	Z49	X50	Y50	Z50	X51	Y51	Z51	

111	1.10000000	1189.91309	483.64995	-90.58551	1201.90283	415.25789	-64.84630	1225.19311	109.19951	-111.64760	1179.08535	64.43719	-169.33377	1324.47023	70.86788	-60.76478	1376.50054	105.58127	-100.34132	910.98993	463.54539	-369.11971	918.36452	399.89307	-371.97893	826.19782	98.05039	-338.97229	750.21181	70.40907	-293.87088	914.16450	38.59324	-352.50542	964.20149	60.44496	-295.82016	1213.48457	303.32953	-64.70241	1132.81483	406.38178	-94.94313	1139.61692	291.23253	-101.26729	831.41022	423.94701	-385.12037	810.67299	304.86665	-383.81242	1113.07095	786.01054	-96.06390	1170.50580	689.45196	-83.94487	1132.76342	647.72617	-44.52720	1022.45927	742.52548	-46.86820	1076.40361	637.35043	-52.88836	1058.93145	723.51772	-398.78467	1025.83736	588.39226	-385.65946	947.72021	746.84033	-425.67188	919.27997	608.94833	-397.79454	1079.17747	904.48131	-113.91476	902.03141	914.36328	-194.40873	1096.06106	893.22595	-371.28222	904.80338	915.98824	-301.16172	973.23630	1378.63151	-302.77082	1011.93446	1348.18952	-135.12937	1042.71126	1291.78365	-448.17639	1079.49691	1292.32191	-259.96661	1082.44729	1284.54735	-303.67510	990.74436	1132.04001	-7.88769	940.24357	1021.70903	-38.09358	957.07756	1055.49354	25.61931	1020.61928	953.03960	59.06020	1055.02916	841.02101	80.55584	1014.87797	831.95672	96.07642	1091.27358	1163.64831	-475.66732	1059.85018	945.40196	-436.76711	1085.71936	955.54507	-491.84899	1170.62583	883.24369	-480.38914	1227.78589	775.40223	-446.47592	1205.38557	754.30913	-467.03842	1017.03615	826.49066	-141.85121	1029.75330	823.22855	-341.71628	1026.74146	811.85371	-152.96556	1031.16279	814.44535	-323.27662	
112	1.11000000	1200.84341	482.27079	-90.89155	1215.64584	414.35112	-65.25732	1250.19569	109.25327	-111.31434	1204.92741	62.62266	-167.88316	1351.84787	74.99898	-61.94669	1401.72039	111.52275	-102.49517	917.23913	463.65083	-369.22513	923.72800	399.79557	-372.10072	827.06143	99.20188	-339.22892	750.81560	71.93253	-294.04319	914.39315	38.46769	-352.56613	964.58275	59.97503	-295.90213	1231.36611	302.94976	-64.93393	1146.77285	402.86782	-94.51302	1157.53066	287.85394	-100.89571	837.18103	425.13834	-385.07153	814.60265	306.30309	-383.82597	1123.89594	784.49244	-95.58115	1181.04428	687.72090	-83.73593	1143.26554	646.06397	-44.29967	1033.26886	741.27176	-46.21623	1086.49580	636.18192	-52.49908	1067.34884	722.24516	-399.17868	1033.11348	587.41435	-386.24296	956.27417	746.69051	-425.38278	926.67624	609.21738	-397.52892	1090.73830	903.35285	-113.73673	913.07876	913.23104	-193.52483	1106.22037	891.82049	-371.30390	915.46071	914.79573	-300.21996	984.18093	1377.67887	-300.51144	1022.60162	1346.03998	-132.94501	1054.15989	1291.97752	-446.46139	1090.55191	1291.24996	-258.04755	1093.54066	1283.78646	-301.82904	1001.78665	1129.18654	-6.91494	952.08257	1018.72784	-37.82439	968.24601	1052.35473	26.07447	1031.25141	949.91934	60.12663	1065.56635	837.84264	81.67802	1025.21934	828.78286	96.78735	1102.20695	1163.68683	-474.54234	1070.09499	945.49411	-435.78684	1095.76131	955.55267	-490.96043	1180.50836	882.90270	-479.98031	1237.92238	774.63059	-446.57250	1214.79955	753.85909	-466.51409	1028.35214	825.36490	-141.38338	1040.08411	821.89874	-341.30466	1037.91104	810.60837	-152.57803	1041.71527	813.10675	-322.98732	
113	1.12000000	1211.70449	480.72909	-91.14124	1229.03231	413.34928	-65.61466	1274.17497	109.51887	-110.86518	1229.72414	61.03228	-166.16774	1378.24966	79.29051	-63.31124	1425.72444	117.48700	-104.96176	923.66517	463.73329	-369.25327	929.31010	399.59919	-372.18178	828.01819	100.42567	-339.48724	751.48436	73.58730	-294.19734	914.60314	38.35399	-352.61314	965.00393	59.50011	-296.01366	1248.63434	302.59353	-65.08944	1160.44825	399.41271	-94.01691	1174.88361	284.68160	-100.38242	843.26597	426.30654	-384.96572	818.76339	307.81900	-383.75739	1135.22215	782.93741	-95.38021	1191.97322	685.88546	-83.72307	1154.26514	644.48117	-44.05272	1044.68182	740.20350	-45.43234	1097.11141	635.09213	-51.88214	1075.76135	720.98626	-399.66674	1040.46224	586.44577	-386.90811	964.77623	746.55636	-424.97992	934.16038	609.46974	-397.15412	1102.53354	902.19236	-113.62010	924.29339	912.02477	-192.52447	1116.39541	890.40094	-371.38986	926.19218	913.56650	-299.17809	995.18959	1376.71715	-298.06752	1033.48046	1343.83339	-130.64663	1065.69971	1292.18887	-444.60445	1101.77729	1290.15053	-256.02816	1104.77045	1283.00386	-299.88661	1013.06010	1126.23424	-5.89866	964.14648	1015.67937	-37.54020	979.65050	1049.08586	26.51995	1042.08215	946.68982	61.19733	1076.34049	834.55476	82.76114	1035.78981	825.47886	97.39729	1113.29777	1163.73622	-473.16985	1080.28770	945.57496	-434.86817	1105.81174	955.61068	-490.07749	1190.29430	882.54152	-479.55631	1247.86325	773.72847	-446.80056	1223.94895	753.27937	-466.13313	1039.89722	824.19296	-140.92300	1050.46725	820.54604	-340.90533	1049.31860	809.28685	-152.23327	1052.35555	811.75125	-322.73819	
114	1.13000000	1222.51083	479.02954	-91.38149	1242.09456	412.27550	-65.96018	1297.05822	109.90760	-110.28001	1253.37318	59.55326	-164.18336	1403.47860	83.63933	-64.74766	1448.42758	123.28243	-107.60493	930.32432	463.76304	-369.16583	935.19478	399.27736	-372.21135	829.08862	101.72310	-339.70874	752.23185	75.39682	-294.31534	914.80692	38.26826	-352.64280	965.45886	59.02315	-296.14341	1265.29966	302.25092	-65.18071	1173.80677	396.02322	-93.46762	1191.66416	281.70381	-99.69335	849.73933	427.42920	-384.78591	823.21293	309.40560	-383.58909	1147.12907	781.36435	-95.43835	1203.30907	683.92805	-83.93167	1165.78198	642.95563	-43.82583	1056.74497	739.31828	-44.54910	1108.29696	634.04320	-51.10755	1084.23401	719.75151	-400.20658	1047.96231	585.48463	-387.61146	973.28642	746.40443	-424.42894	941.81001	609.64085	-396.63455	1114.54967	901.02790	-113.55458	935.68302	910.76031	-191.40161	1126.58998	888.95877	-371.52411	936.99435	912.32355	-298.03436	1006.29449	1375.74253	-295.43731	1044.59447	1341.56958	-128.23725	1077.30056	1292.42297	-442.61682	1113.16975	1289.01508	-253.92471	1116.13695	1282.19683	-297.86121	1024.58385	1123.18836	-4.84042	976.42205	1012.57141	-37.22299	991.29654	1045.70276	26.97044	1053.18044	943.36397	62.24348	1087.36400	831.16283	83.79786	1046.60836	822.05282	97.90316	1124.52765	1163.80605	-471.58798	1090.43712	945.66692	-434.00225	1115.88661	955.73225	-489.19079	1199.99458	882.17645	-479.09448	1257.52718	772.76239	-447.06268	1232.85375	752.58061	-465.89385	1051.66071	822.99916	-140.45380	1060.90058	819.17263	-340.49832	1060.97814	807.88752	-151.91881	1063.07904	810.38855	-322.51549	
